Coordinates
version=1
nRows=14
nColumns=40
inDegrees=yes

Units are S.I. units (second, meters, Newtons, ...)
Angles are in degrees.

endheader
time	pelvis_tilt	pelvis_list	pelvis_rotation	pelvis_tx	pelvis_ty	pelvis_tz	hip_flexion_r	hip_adduction_r	hip_rotation_r	knee_angle_r	knee_angle_r_beta	ankle_angle_r	subtalar_angle_r	mtp_angle_r	hip_flexion_l	hip_adduction_l	hip_rotation_l	knee_angle_l	knee_angle_l_beta	ankle_angle_l	subtalar_angle_l	mtp_angle_l	lumbar_extension	lumbar_bending	lumbar_rotation	arm_flex_r	arm_add_r	arm_rot_r	elbow_flex_r	pro_sup_r	wrist_flex_r	wrist_dev_r	arm_flex_l	arm_add_l	arm_rot_l	elbow_flex_l	pro_sup_l	wrist_flex_l	wrist_dev_l
      1.42000000	      0.55418028	     -1.16918829	      1.13222436	      0.13967298	      0.93754205	     -1.43829532	     22.66651371	     -3.80293188	    -20.40467406	    -24.54630646	     -0.42841387	     -3.30594283	     -7.41411658	     -0.78321033	    -14.26891951	      7.10850112	     17.94437682	    -24.56055255	     -0.42866251	     -0.09214837	     -0.14136242	    -12.67775424	     -5.78272944	      2.11016883	     -3.99350047	     -2.31202063	     -7.25763576	    -11.09466920	     14.83614726	     89.95437384	      0.00000000	      0.00000000	      7.31354286	     12.14074878	     15.16014908	     20.84208683	     89.95437384	      0.00000000	      0.00000000
      1.43000000	      0.80070405	     -2.08792778	      1.22598091	      0.15016391	      0.93861444	     -1.43429405	     21.63766879	     -2.31109437	    -20.11940324	    -24.34556447	     -0.42491026	     -3.30155638	     -8.82785318	     -0.99147582	    -13.91527598	      8.95123308	     18.85168966	    -26.82121014	     -0.46811843	     -1.56996691	     -0.59659928	    -12.13184137	     -5.79958987	      3.01949566	     -3.70271005	     -2.08437728	     -7.29929854	    -10.90353077	     14.69787614	     89.95437384	      0.00000000	      0.00000000	      6.59610489	     11.88723623	     14.84683202	     20.36760177	     89.95437384	      0.00000000	      0.00000000
      1.44000000	      0.96491620	     -2.22948957	      1.21057657	      0.16032577	      0.93986175	     -1.43108396	     20.87432331	     -1.88252166	    -19.97812907	    -24.62361031	     -0.42976307	     -2.46588566	     -8.77688154	     -1.13795475	    -13.42264056	      9.60685342	     18.96924800	    -28.82299152	     -0.50305610	     -3.41704813	      0.59724494	    -11.44264414	     -5.76208788	      3.11777266	     -3.38361047	     -1.69607444	     -7.32812869	    -10.62155496	     14.35705888	     89.95437384	      0.00000000	      0.00000000	      5.94533726	     11.67371387	     14.53469364	     19.72409884	     89.95437384	      0.00000000	      0.00000000
      1.45000000	      0.90509051	     -2.99644585	      1.32461600	      0.17014982	      0.94087927	     -1.42729513	     20.10045499	     -0.68925801	    -20.13177487	    -24.29035796	     -0.42394672	     -1.89557029	     -8.74452635	     -1.15158799	    -12.33926614	     11.09898104	     19.04177369	    -31.32991118	     -0.54681010	     -5.13469960	      2.03936227	    -10.69352672	     -5.47311804	      3.84962095	     -3.11707589	     -1.34858203	     -7.34397273	    -10.62439116	     14.13006460	     89.95437384	      0.00000000	      0.00000000	      5.22070044	     11.43921619	     14.03825302	     19.23306282	     89.95437384	      0.00000000	      0.00000000
      1.46000000	      0.88103852	     -3.47380249	      1.49328510	      0.17991657	      0.94212620	     -1.42400455	     19.27929763	      0.16361761	    -20.14357771	    -23.98466810	     -0.41861143	     -1.25726395	     -8.89250980	     -1.15097436	    -11.21698878	     12.26937526	     19.04472564	    -33.69955680	     -0.58816822	     -7.20416741	      3.45765519	     -9.96104945	     -5.19832247	      4.27382165	     -2.87943592	     -0.96791309	     -7.37097455	    -10.66760796	     13.80876049	     89.95437384	      0.00000000	      0.00000000	      4.55019384	     11.19999715	     13.56389956	     18.67046855	     89.95437384	      0.00000000	      0.00000000
      1.47000000	      0.64138661	     -4.08104324	      1.80233342	      0.18899935	      0.94295532	     -1.42066911	     18.71359520	      1.14902461	    -20.19678083	    -23.54375773	     -0.41091609	     -1.02924355	     -9.31168748	     -0.91482926	     -9.47165819	     13.56731984	     18.56029446	    -36.48980941	     -0.63686732	     -8.55592855	      5.16278416	     -9.27260237	     -4.77227376	      4.82661412	     -2.74521318	     -0.61302218	     -7.39928433	    -10.89961633	     13.73389060	     89.95437384	      0.00000000	      0.00000000	      3.88880752	     11.00783319	     12.81944521	     18.24619297	     89.95437384	      0.00000000	      0.00000000
      1.48000000	      0.65048256	     -4.29648199	      2.04029812	      0.19804904	      0.94432469	     -1.41772349	     17.87504361	      1.70258211	    -20.08080422	    -23.18300313	     -0.40461974	     -0.35894080	     -9.46884157	     -0.89793509	     -8.14267860	     14.26079146	     18.01317464	    -38.74470228	     -0.67622262	     -9.86107591	      6.62888334	     -8.77471780	     -4.65128529	      4.96731553	     -2.55725712	     -0.08517923	     -7.42917002	    -10.79967261	     13.38040889	     89.95437384	      0.00000000	      0.00000000	      3.33807985	     10.82357961	     12.19449031	     17.69694109	     89.95437384	      0.00000000	      0.00000000
      1.49000000	     -0.09801083	     -4.68227015	      2.50162978	      0.20596096	      0.94423295	     -1.41524414	     18.05976446	      2.34218952	    -19.99039072	    -22.93152760	     -0.40023066	     -0.23535923	    -10.47033071	     -0.21521060	     -5.39464234	     15.10439328	     16.95096109	    -41.83788186	     -0.73020879	     -9.06305115	      9.11251968	     -8.24412499	     -3.71972144	      5.29206226	     -2.52460644	      0.22864805	     -7.53226171	    -11.14806167	     13.46387553	     89.95437384	      0.00000000	      0.00000000	      2.69674995	     10.69144060	     10.83397053	     17.41841695	     89.95437384	      0.00000000	      0.00000000
      1.50000000	     -0.30280817	     -4.91487788	      2.99156619	      0.21431190	      0.94505839	     -1.41323389	     17.56412680	      2.71323654	    -20.27486118	    -22.66440338	     -0.39556846	      0.15956600	    -10.42107375	      0.07190701	     -3.41747556	     15.69543471	     16.13503222	    -44.41376232	     -0.77516639	     -7.94715265	     11.25736992	     -7.92323244	     -3.40072567	      5.48830497	     -2.50462756	      0.59850409	     -7.63181041	    -11.53517578	     13.45066492	     89.95437384	      0.00000000	      0.00000000	      2.15308009	     10.49205206	      9.90841389	     17.06811818	     89.95437384	      0.00000000	      0.00000000
      1.51000000	     -0.50176474	     -5.05253554	      3.51251436	      0.22249445	      0.94586532	     -1.41146094	     17.02309976	      2.98129040	    -20.59635026	    -22.30954393	     -0.38937500	      0.58406718	    -10.40442323	      0.27921683	     -1.40779394	     16.09899302	     15.36271135	    -46.81994837	     -0.81716225	     -6.55507463	     13.21170293	     -7.46202683	     -3.10625192	      5.57957567	     -2.45638513	      0.98967461	     -7.77336497	    -11.94837847	     13.48576731	     89.95437384	      0.00000000	      0.00000000	      1.63738379	     10.32072756	      8.84641748	     16.79133030	     89.95437384	      0.00000000	      0.00000000
      1.52000000	     -0.36349249	     -5.07993141	      3.92642751	      0.23070079	      0.94724589	     -1.40976674	     16.08004785	      3.21160837	    -20.75459484	    -21.90126795	     -0.38224924	      1.20304520	    -10.35840594	      0.28612166	      0.03788146	     16.29923520	     14.80364100	    -48.76420566	     -0.85109595	     -5.07858227	     14.72317443	     -7.21454255	     -3.22741483	      5.56550689	     -2.35156635	      1.49018413	     -7.89414031	    -12.57826525	     13.50089260	     89.95437384	      0.00000000	      0.00000000	      1.29788708	     10.09294482	      8.14062784	     16.24398322	     89.95437384	      0.00000000	      0.00000000
      1.53000000	     -0.29421499	     -5.06908219	      4.41437555	      0.23844016	      0.94852295	     -1.40822741	     15.24242256	      3.35532800	    -21.05593067	    -21.48888900	     -0.37505187	      1.55744328	    -10.24574869	      0.31346719	      1.71604926	     16.39959296	     14.11613831	    -50.62009106	     -0.88348726	     -3.93370397	     16.07173605	     -6.86303689	     -3.34409471	      5.49859014	     -2.23564646	      1.97685202	     -8.03825130	    -13.15005838	     13.57114578	     89.95437384	      0.00000000	      0.00000000	      0.96805351	      9.90610320	      7.37664799	     15.87366486	     89.95437384	      0.00000000	      0.00000000
      1.54000000	     -0.45782914	     -5.04520547	      4.99037555	      0.24603893	      0.94937987	     -1.40704477	     14.57979876	      3.43952142	    -21.65364134	    -20.91000477	     -0.36494843	      1.84148138	    -10.08409610	      0.37382111	      3.70143539	     16.31925751	     13.14690064	    -52.33205641	     -0.91336669	     -2.60084086	     16.89672823	     -6.21594259	     -3.19452555	      5.43485385	     -2.12030624	      2.34218096	     -8.20791039	    -14.02030146	     13.78687270	     89.95437384	      0.00000000	      0.00000000	      0.63184413	      9.73429742	      6.30763319	     15.61539046	     89.95437384	      0.00000000	      0.00000000
      1.55000000	     -0.43052560	     -4.84841742	      5.37905100	      0.25357132	      0.95056092	     -1.40581123	     13.76118645	      3.37754334	    -21.98753228	    -20.48082212	     -0.35745778	      2.16599768	     -9.80886938	      0.38215203	      5.28056161	     16.04146953	     12.57463757	    -53.68043520	     -0.93690034	     -1.30359030	     17.36967138	     -5.73864215	     -3.31138341	      5.18125795	     -1.86780100	      2.82113336	     -8.42359893	    -14.52242284	     13.89815508	     89.95437384	      0.00000000	      0.00000000	      0.32367918	      9.56791036	      5.50333200	     15.37671980	     89.95437384	      0.00000000	      0.00000000
